<svg width="19" height="19" viewBox="0 0 19 19" fill="none" xmlns="http://www.w3.org/2000/svg">
<path d="M17.7256 4.85008C16.8761 3.35803 15.7238 2.17678 14.2684 1.30605C12.8128 0.435276 11.2236 0 9.49991 0C7.7764 0 6.18676 0.435409 4.73144 1.30605C3.27589 2.17673 2.12362 3.35803 1.2741 4.85008C0.424715 6.34208 0 7.97135 0 9.73786C0 11.8598 0.60395 13.768 1.81215 15.4627C3.02023 17.1577 4.58088 18.3305 6.49398 18.9813C6.71667 19.0237 6.88153 18.9939 6.98871 18.8927C7.09594 18.7913 7.14949 18.6644 7.14949 18.5124C7.14949 18.4871 7.14737 18.2589 7.14325 17.8277C7.13901 17.3965 7.13701 17.0204 7.13701 16.6994L6.8525 16.7499C6.67109 16.7839 6.44225 16.7984 6.16597 16.7943C5.88982 16.7903 5.60313 16.7607 5.30631 16.7055C5.00937 16.6508 4.73317 16.524 4.47751 16.3254C4.22198 16.1267 4.04058 15.8667 3.93335 15.5457L3.80965 15.2539C3.72721 15.0597 3.5974 14.8439 3.42007 14.6073C3.24275 14.3706 3.06342 14.2101 2.88202 14.1256L2.79541 14.062C2.73771 14.0198 2.68416 13.9688 2.63464 13.9097C2.58516 13.8506 2.54812 13.7915 2.52338 13.7322C2.4986 13.6729 2.51913 13.6243 2.5852 13.5861C2.65127 13.548 2.77068 13.5295 2.94393 13.5295L3.19123 13.5674C3.35617 13.6012 3.56019 13.7025 3.80354 13.8716C4.04677 14.0407 4.24672 14.2604 4.40342 14.5308C4.59319 14.8774 4.82181 15.1416 5.08995 15.3234C5.35787 15.5052 5.628 15.5959 5.90008 15.5959C6.17216 15.5959 6.40716 15.5748 6.60515 15.5327C6.80293 15.4904 6.98849 15.4269 7.16175 15.3424C7.23597 14.7758 7.43803 14.3405 7.76778 14.0363C7.29779 13.9856 6.87524 13.9094 6.49992 13.808C6.12481 13.7065 5.73718 13.5417 5.33729 13.3132C4.93719 13.0851 4.60527 12.8018 4.34147 12.4638C4.07762 12.1257 3.86108 11.6817 3.69216 11.1324C3.52314 10.5829 3.43862 9.94894 3.43862 9.23046C3.43862 8.20744 3.76442 7.33689 4.4159 6.61831C4.11072 5.8492 4.13953 4.987 4.50242 4.0318C4.74157 3.95563 5.09623 4.01279 5.56622 4.20291C6.0363 4.39313 6.38047 4.55607 6.59909 4.69117C6.81771 4.82623 6.99287 4.94067 7.12484 5.03349C7.89191 4.81379 8.6835 4.70392 9.49983 4.70392C10.3162 4.70392 11.1079 4.81379 11.875 5.03349L12.3451 4.72932C12.6665 4.52636 13.0461 4.34037 13.4829 4.17129C13.9199 4.00231 14.2541 3.95576 14.4851 4.03193C14.8561 4.98717 14.8892 5.84933 14.5839 6.61845C15.2353 7.33702 15.5613 8.2078 15.5613 9.23059C15.5613 9.94908 15.4764 10.585 15.3077 11.1388C15.1387 11.6926 14.9203 12.1361 14.6524 12.4702C14.3842 12.8042 14.0501 13.0853 13.6502 13.3134C13.2503 13.5416 12.8625 13.7064 12.4874 13.8079C12.1121 13.9095 11.6896 13.9858 11.2196 14.0365C11.6482 14.4167 11.8626 15.0169 11.8626 15.8369V18.5121C11.8626 18.6641 11.9142 18.7909 12.0174 18.8923C12.1204 18.9935 12.2832 19.0233 12.5059 18.9809C14.4193 18.3302 15.9799 17.1573 17.1879 15.4624C18.3958 13.7676 19 11.8595 19 9.7375C18.9996 7.97122 18.5746 6.34208 17.7256 4.85008Z"/>
</svg>
