<svg width="16" height="15" viewBox="0 0 16 15" fill="none" xmlns="http://www.w3.org/2000/svg">
<path d="M16 9.19575V15H12.5699V9.58474C12.5699 8.22503 12.0747 7.29647 10.8328 7.29647C9.88502 7.29647 9.32199 7.92162 9.07335 8.52694C8.98305 8.74327 8.95978 9.04367 8.95978 9.34708V14.9998H5.52945C5.52945 14.9998 5.57549 5.82809 5.52945 4.8787H8.96003V6.31295C8.95312 6.32424 8.9434 6.33529 8.93726 6.34608H8.96003V6.31295C9.41587 5.62481 10.2288 4.64104 12.0514 4.64104C14.3081 4.64104 16 6.08759 16 9.19575ZM1.94104 0C0.767666 0 0 0.755647 0 1.74845C0 2.72018 0.745411 3.49766 1.89602 3.49766H1.91827C3.11466 3.49766 3.85854 2.72018 3.85854 1.74845C3.83577 0.755647 3.11466 0 1.94104 0ZM0.203875 15H3.63292V4.8787H0.203875V15Z" />
</svg>
