<svg width="28" height="24" viewBox="0 0 28 24" xmlns="http://www.w3.org/2000/svg">
<path d="M26.5606 21.1326V20.1717L26.2934 22.0566L26.5606 21.1326ZM26.9029 21.3479L26.1435 21.9481L26.1771 21.9897L26.2152 22.0273L26.9029 21.3479ZM26.5917 21.1326V22.0935L26.8276 20.2004L26.5917 21.1326ZM24.8488 20.8251L24.0637 21.3922L24.2978 21.7086L24.6889 21.773L24.8488 20.8251ZM20.0248 14.3062L20.81 13.7391L20.8078 13.7362L20.0248 14.3062ZM19.0289 13.3837L18.8328 12.4425L16.4184 12.9337L18.5218 14.2037L19.0289 13.3837ZM21.332 12.492L20.8757 11.6434L20.8695 11.6467L20.8633 11.65L21.332 12.492ZM24.133 9.26329L25.0437 9.6007L25.0454 9.59619L25.047 9.59167L24.133 9.26329ZM24.0396 4.55862L23.1419 4.92819V4.92822L24.0396 4.55862ZM22.5458 2.6214L23.1616 1.87768L23.1591 1.87561L22.5458 2.6214ZM19.9937 1.39142L20.2559 0.466083L20.2535 0.465423L20.2512 0.464773L19.9937 1.39142ZM8.07375 0.960922V0H7.10117V0.960922H8.07375ZM0.972581 1.02242V0.0614917H0V1.02242H0.972581ZM1.34605 2.86739L1.11017 3.79962L1.13262 3.80516L1.15531 3.80964L1.34605 2.86739ZM3.21341 3.23639H4.18598V2.44861L3.40416 2.29412L3.21341 3.23639ZM3.21341 20.7944L3.39462 21.7384L4.18598 21.5902V20.7944H3.21341ZM1.4083 21.1326L1.22707 20.1885L1.21577 20.1906L1.20452 20.193L1.4083 21.1326ZM0.972581 23.0391H0V24H0.972581V23.0391ZM8.47312 23.0391V24H9.4457V23.0391H8.47312ZM15.5743 23.0083V23.9692H16.5469V23.0083H15.5743ZM15.4187 21.3479L14.6592 21.9481L14.7267 22.0315L14.8111 22.0982L15.4187 21.3479ZM15.0763 21.1326L15.3435 20.2086L15.3121 20.1998L15.2801 20.193L15.0763 21.1326ZM13.3335 20.7636H12.3609V21.5405L13.1297 21.7032L13.3335 20.7636ZM13.3335 13.8142V12.8533H12.3609V13.8142H13.3335ZM16.259 13.9987L15.7195 14.7983L15.7281 14.8039L15.7368 14.8094L16.259 13.9987ZM16.8192 14.5215L16.0224 15.0725L16.0274 15.0794L16.0324 15.0863L16.8192 14.5215ZM22.608 22.3933L23.4524 21.9166L23.4261 21.871L23.3948 21.8285L22.608 22.3933ZM27.0274 23.0391V24H28V23.0391H27.0274ZM8.07375 23.0083H7.10117V23.9692H8.07375V23.0083ZM8.19824 21.3479L8.88595 22.0273L8.92404 21.9897L8.95769 21.9481L8.19824 21.3479ZM8.09965 21.1634L8.33553 20.2311L8.31161 20.2252L8.28739 20.2205L8.09965 21.1634ZM6.20117 20.7944H5.22859V21.5847L6.01346 21.7372L6.20117 20.7944ZM6.20117 3.23639L6.01995 2.29228L5.22859 2.44057V3.23639H6.20117ZM8.00628 2.89814L8.18751 3.84222L8.19227 3.84132L8.19704 3.84039L8.00628 2.89814ZM8.54059 2.86739L8.27339 3.79135L8.30814 3.80115L8.34354 3.80839L8.54059 2.86739ZM10.3457 3.23639H11.3183V2.45392L10.5427 2.29539L10.3457 3.23639ZM10.3457 20.7636L10.5427 21.7046L11.3183 21.5461V20.7636H10.3457ZM8.54059 21.1326L8.34354 20.1916L8.30814 20.1988L8.27342 20.2086L8.54059 21.1326ZM8.19824 2.6829L7.43878 3.28318L7.47243 3.32473L7.51052 3.36236L8.19824 2.6829ZM8.47312 1.02242H9.4457V0.0614917H8.47312V1.02242ZM18.4687 11.3543L18.7673 12.2688L18.7718 12.2674L18.7763 12.2659L18.4687 11.3543ZM13.3023 11.6618H12.3298V12.6227H13.3023V11.6618ZM13.3023 3.35939V2.39846H12.3298V3.35939H13.3023ZM20.2116 4.34337L20.8125 3.58776L20.81 3.58587L20.2116 4.34337ZM21.1764 9.0788L22.0666 9.46579L21.1764 9.0788ZM20.1493 10.4318L20.772 11.17L20.7785 11.1645L20.785 11.159L20.1493 10.4318ZM26.2934 22.0566C26.2863 22.0546 26.2635 22.0471 26.2329 22.0279C26.2014 22.008 26.1701 21.9809 26.1435 21.9481L27.6624 20.7476C27.4365 20.4685 27.1395 20.2967 26.8278 20.2086L26.2934 22.0566ZM26.5917 20.1717H26.5606V22.0935H26.5917V20.1717ZM24.6889 21.773C25.7085 21.9408 26.238 22.0357 26.3558 22.0648L26.8276 20.2004C26.6135 20.1475 25.981 20.0374 25.0087 19.8773L24.6889 21.773ZM19.2397 14.8734L24.0637 21.3922L25.634 20.258L20.81 13.7391L19.2397 14.8734ZM18.5218 14.2037C18.7757 14.357 19.0172 14.575 19.2418 14.8762L20.8078 13.7362C20.4515 13.2584 20.029 12.8614 19.5361 12.5638L18.5218 14.2037ZM20.8633 11.65C20.0934 12.0684 19.4183 12.3234 18.8328 12.4425L19.225 14.3249C20.0504 14.157 20.9107 13.8176 21.8007 13.334L20.8633 11.65ZM22.2922 10.4983C21.8965 10.9743 21.4263 11.3544 20.8757 11.6434L21.7883 13.3406C22.5656 12.9326 23.2366 12.3902 23.7953 11.7182L22.2922 10.4983ZM23.2224 8.92588C23.0131 9.47719 22.7057 10.001 22.2922 10.4983L23.7953 11.7182C24.3362 11.0676 24.7549 10.3614 25.0437 9.6007L23.2224 8.92588ZM23.5339 7.11083C23.5339 7.76339 23.4272 8.36922 23.219 8.93491L25.047 9.59167C25.3368 8.80439 25.4791 7.97524 25.4791 7.11083H23.5339ZM23.1419 4.92822C23.3947 5.52771 23.5339 6.24878 23.5339 7.11083H25.4791C25.4791 6.0459 25.3071 5.06554 24.9374 4.18905L23.1419 4.92822ZM21.9299 3.36512C22.5027 3.82819 22.8977 4.3492 23.1419 4.92819L24.9374 4.18905C24.5591 3.29206 23.9582 2.52159 23.1616 1.87768L21.9299 3.36512ZM19.7315 2.31675C20.6728 2.57716 21.3949 2.93568 21.9324 3.36717L23.1591 1.87561C22.3687 1.24113 21.3895 0.779667 20.2559 0.466083L19.7315 2.31675ZM16.3212 1.92184C17.6464 1.92184 18.7808 2.05892 19.7363 2.31806L20.2512 0.464773C19.0903 0.149918 17.7764 0 16.3212 0V1.92184ZM8.07375 1.92184H16.3212V0H8.07375V1.92184ZM9.04633 1.02242V0.960922H7.10117V1.02242H9.04633ZM0.972581 1.98334H8.07375V0.0614917H0.972581V1.98334ZM1.94516 2.31389V1.02242H0V2.31389H1.94516ZM1.58194 1.93515C1.61254 1.94271 1.6638 1.96023 1.72215 1.99866C1.78231 2.03829 1.83508 2.09043 1.87519 2.14987C1.9533 2.26562 1.94516 2.34884 1.94516 2.31389H0C0 2.58644 0.0541114 2.91565 0.256713 3.21592C0.472457 3.53565 0.787032 3.71979 1.11017 3.79962L1.58194 1.93515ZM3.40416 2.29412L1.53679 1.92512L1.15531 3.80964L3.02267 4.17864L3.40416 2.29412ZM4.18598 20.7944V3.23639H2.24083V20.7944H4.18598ZM1.58952 22.0767L3.39462 21.7384L3.03219 19.8503L1.22707 20.1885L1.58952 22.0767ZM1.94516 21.7168C1.94516 21.6861 1.95215 21.7773 1.86449 21.8948C1.76762 22.0247 1.64721 22.0648 1.61208 22.0722L1.20452 20.193C0.878906 20.2619 0.540645 20.4301 0.298528 20.7548C0.0656316 21.067 0 21.4196 0 21.7168H1.94516ZM1.94516 23.0391V21.7168H0V23.0391H1.94516ZM8.47312 22.0782H0.972581V24H8.47312V22.0782ZM7.50054 23.0083V23.0391H9.4457V23.0083H7.50054ZM15.5743 22.0474H8.47312V23.9692H15.5743V22.0474ZM14.6017 21.6861V23.0083H16.5469V21.6861H14.6017ZM14.8111 22.0982C14.7509 22.0506 14.6911 21.9809 14.65 21.8915C14.61 21.8047 14.6017 21.7299 14.6017 21.6861H16.5469C16.5469 21.2818 16.3842 20.8804 16.0263 20.5975L14.8111 22.0982ZM14.8092 22.0566C14.8021 22.0546 14.7793 22.0471 14.7487 22.0279C14.7171 22.008 14.6858 21.9809 14.6592 21.9481L16.1781 20.7476C15.9522 20.4685 15.6553 20.2967 15.3435 20.2086L14.8092 22.0566ZM13.1297 21.7032L14.8725 22.0722L15.2801 20.193L13.5373 19.824L13.1297 21.7032ZM12.3609 13.8142V20.7636H14.3061V13.8142H12.3609ZM15.3253 12.8533H13.3335V14.7751H15.3253V12.8533ZM16.7985 13.1992C16.3606 12.9108 15.8015 12.8533 15.3253 12.8533V14.7751C15.501 14.7751 15.6203 14.7879 15.6948 14.8026C15.7736 14.8182 15.766 14.8289 15.7195 14.7983L16.7985 13.1992ZM17.616 13.9704C17.3925 13.655 17.1099 13.3947 16.7811 13.188L15.7368 14.8094C15.8646 14.8897 15.9555 14.978 16.0224 15.0725L17.616 13.9704ZM23.3948 21.8285L17.606 13.9566L16.0324 15.0863L21.8212 22.9582L23.3948 21.8285ZM23.7907 22.0782C23.5682 22.0782 23.513 22.0212 23.4524 21.9166L21.7636 22.8701C22.201 23.6265 22.9342 24 23.7907 24V22.0782ZM27.0274 22.0782H23.7907V24H27.0274V22.0782ZM26.0548 21.6861V23.0391H28V21.6861H26.0548ZM26.2152 22.0273C26.1527 21.9656 26.1084 21.8932 26.0823 21.8223C26.0575 21.7551 26.0548 21.705 26.0548 21.6861H28C28 21.3519 27.8973 20.9714 27.5906 20.6684L26.2152 22.0273ZM7.6852 22.0043C7.59896 21.9361 7.54654 21.8533 7.52032 21.7859C7.49704 21.726 7.50054 21.6952 7.50054 21.7168H9.4457C9.4457 21.3361 9.33463 20.8473 8.90125 20.5044L7.6852 22.0043ZM7.50054 21.7168V23.0083H9.4457V21.7168H7.50054ZM8.47312 22.0474H8.07375V23.9692H8.47312V22.0474ZM9.04633 23.0083V21.6861H7.10117V23.0083H9.04633ZM9.04633 21.6861C9.04633 21.705 9.04364 21.7551 9.0189 21.8223C8.9928 21.8932 8.94845 21.9656 8.88595 22.0273L7.51052 20.6684C7.20387 20.9714 7.10117 21.3519 7.10117 21.6861H9.04633ZM8.95769 21.9481C8.94022 21.9697 8.92005 21.9896 8.8982 22.0067L7.68825 20.5019C7.59595 20.5744 7.51247 20.6566 7.43878 20.7476L8.95769 21.9481ZM7.86377 22.0956C7.82554 22.0861 7.75769 22.0617 7.6852 22.0043L8.90125 20.5044C8.72301 20.3633 8.52613 20.2782 8.33553 20.2311L7.86377 22.0956ZM6.01346 21.7372L7.91194 22.1062L8.28739 20.2205L6.38891 19.8515L6.01346 21.7372ZM5.22859 3.23639V20.7944H7.17375V3.23639H5.22859ZM7.82506 1.95404L6.01995 2.29228L6.38239 4.18046L8.18751 3.84222L7.82506 1.95404ZM7.6545 2.0461C7.7383 1.97245 7.81099 1.95678 7.81556 1.95587L8.19704 3.84039C8.44599 3.79119 8.71507 3.68616 8.94729 3.48206L7.6545 2.0461ZM8.80779 1.94345C8.79881 1.94091 8.79676 1.93974 8.8002 1.94123C8.8037 1.94274 8.81336 1.94719 8.82714 1.95597L7.77468 3.5722C7.93639 3.67498 8.1072 3.74443 8.27339 3.79135L8.80779 1.94345ZM10.5427 2.29539L8.73763 1.9264L8.34354 3.80839L10.1487 4.17739L10.5427 2.29539ZM11.3183 20.7636V3.23639H9.37312V20.7636H11.3183ZM8.73763 22.0736L10.5427 21.7046L10.1487 19.8226L8.34354 20.1916L8.73763 22.0736ZM8.8982 22.0067C8.85421 22.0413 8.81793 22.0537 8.80775 22.0566L8.27342 20.2086C8.07109 20.2658 7.86993 20.3594 7.68825 20.5019L8.8982 22.0067ZM8.82714 1.95597C8.84312 1.96612 8.86378 1.98151 8.88595 2.00342L7.51052 3.36236C7.59293 3.44382 7.68206 3.51332 7.77468 3.5722L8.82714 1.95597ZM8.95769 2.08261C8.98697 2.11876 9.01154 2.1625 9.02756 2.2099C9.04318 2.25626 9.04633 2.29332 9.04633 2.3139H7.10117C7.10117 2.65392 7.20471 2.99411 7.43878 3.28318L8.95769 2.08261ZM9.04633 2.3139V1.02242H7.10117V2.3139H9.04633ZM8.07375 1.98334H8.47312V0.0614917H8.07375V1.98334ZM7.50054 1.02242V2.31389H9.4457V1.02242H7.50054ZM7.50054 2.31389C7.50054 2.32447 7.49879 2.29235 7.52032 2.2361C7.54395 2.17436 7.58781 2.1047 7.6545 2.0461L8.94729 3.48206C9.32951 3.14617 9.4457 2.69681 9.4457 2.31389H7.50054ZM16.1345 12.6227C17.1157 12.6227 18.0005 12.5132 18.7673 12.2688L18.1701 10.4397C17.6505 10.6053 16.9792 10.7008 16.1345 10.7008V12.6227ZM13.3023 12.6227H16.1345V10.7008H13.3023V12.6227ZM12.3298 3.35939V11.6618H14.2749V3.35939H12.3298ZM16.3212 2.39846H13.3023V4.32031H16.3212V2.39846ZM20.81 3.58587C19.7114 2.73871 18.1573 2.39846 16.3212 2.39846V4.32031C17.9709 4.32031 19.0104 4.63607 19.6132 5.10086L20.81 3.58587ZM22.4913 7.29532C22.4913 5.76829 21.962 4.48021 20.8125 3.58776L19.6107 5.09897C20.204 5.55951 20.5461 6.2394 20.5461 7.29532H22.4913ZM22.0666 9.46579C22.3592 8.80871 22.4913 8.0779 22.4913 7.29532H20.5461C20.5461 7.86576 20.45 8.32389 20.2862 8.6918L22.0666 9.46579ZM20.785 11.159C21.3437 10.6823 21.7764 10.1173 22.0666 9.46579L20.2862 8.6918C20.1198 9.06528 19.8679 9.40224 19.5136 9.70452L20.785 11.159ZM18.7763 12.2659C19.5123 12.0234 20.1797 11.6576 20.772 11.17L19.5267 9.69356C19.1231 10.0259 18.67 10.2751 18.1611 10.4427L18.7763 12.2659Z"/>
</svg>
