<svg width="20" height="19" viewBox="0 0 20 19" fill="none" xmlns="http://www.w3.org/2000/svg">
<path d="M18.6158 10.8129C18.4209 10.7642 18.226 10.8129 18.0554 10.9348C17.4219 11.4708 16.6909 11.9094 15.8868 12.2018C15.1315 12.4942 14.303 12.6404 13.4258 12.6404C11.4521 12.6404 9.64904 11.8363 8.35763 10.5449C7.06622 9.25349 6.26213 7.45039 6.26213 5.47672C6.26213 4.64827 6.40833 3.84418 6.65199 3.11319C6.92002 2.33347 7.30988 1.62685 7.82157 1.01769C8.04087 0.749663 7.99214 0.359802 7.72411 0.140506C7.55354 0.0186745 7.35861 -0.0300581 7.16368 0.0186745C5.09255 0.579099 3.28945 1.82178 1.99803 3.47869C0.755354 5.11123 0 7.13363 0 9.35096C0 12.0069 1.07212 14.4191 2.82649 16.1735C4.58086 17.9279 6.99312 19 9.64904 19C11.8907 19 13.9619 18.2203 15.6188 16.9289C17.3001 15.6131 18.5184 13.7369 19.0301 11.5927C19.1519 11.2272 18.957 10.886 18.6158 10.8129ZM14.8878 15.9055C13.4745 17.0263 11.6714 17.7086 9.69778 17.7086C7.38298 17.7086 5.28748 16.7583 3.77677 15.2476C2.26606 13.7369 1.31578 11.6414 1.31578 9.32659C1.31578 7.40166 1.9493 5.64728 3.04578 4.23404C3.80114 3.25939 4.75142 2.4553 5.84791 1.89488C5.72607 2.16291 5.60424 2.43094 5.50678 2.72333C5.19002 3.60052 5.04382 4.52643 5.04382 5.50109C5.04382 7.81588 5.9941 9.93575 7.50481 11.4465C9.01552 12.9572 11.1354 13.9074 13.4502 13.9074C14.4736 13.9074 15.4482 13.7369 16.3498 13.3958C16.6665 13.2739 16.9833 13.1521 17.2757 13.0059C16.6909 14.1267 15.8868 15.1258 14.8878 15.9055Z" fill="white"/>
</svg>
