<svg width="17" height="14" viewBox="0 0 17 14" fill="none" xmlns="http://www.w3.org/2000/svg">
<path d="M17 1.65739C16.3747 1.93836 15.7021 2.1284 14.9967 2.21327C15.7169 1.776 16.2696 1.0841 16.5305 0.258307C15.8566 0.663428 15.1098 0.95732 14.3157 1.11573C13.6795 0.429107 12.773 0 11.7693 0C9.84345 0 8.28151 1.58279 8.28151 3.53433C8.28151 3.81135 8.31246 4.08099 8.37229 4.33983C5.47367 4.19249 2.90356 2.7855 1.18322 0.646559C0.883059 1.16845 0.710869 1.776 0.710869 2.42361C0.710869 3.64952 1.32706 4.73177 2.2624 5.36541C1.69095 5.34723 1.15279 5.18829 0.682778 4.92287C0.682518 4.93789 0.682517 4.95291 0.682517 4.96767C0.682517 6.68015 1.88525 8.10848 3.48048 8.43295C3.18812 8.51413 2.87937 8.55709 2.56178 8.55709C2.33653 8.55709 2.1183 8.53522 1.90554 8.4941C2.34928 9.89792 3.63706 10.9198 5.16362 10.9485C3.96974 11.8966 2.46606 12.4615 0.831558 12.4615C0.550644 12.4615 0.272331 12.4449 0 12.4119C1.54269 13.4151 3.37643 14 5.34596 14C11.7612 14 15.2695 8.61455 15.2695 3.94367C15.2695 3.79053 15.2661 3.63792 15.2594 3.48662C15.9414 2.98846 16.5326 2.36615 17 1.65739Z" />
</svg>
