<?xml version="1.0" standalone="no"?>
<!DOCTYPE svg PUBLIC "-//W3C//DTD SVG 20010904//EN"
 "http://www.w3.org/TR/2001/REC-SVG-20010904/DTD/svg10.dtd">
<svg version="1.0" xmlns="http://www.w3.org/2000/svg"
 width="700.000000pt" height="700.000000pt" viewBox="0 0 700.000000 700.000000"
 preserveAspectRatio="xMidYMid meet">
<metadata>
Created by potrace 1.11, written by Peter Selinger 2001-2013
</metadata>
<g transform="translate(0.000000,700.000000) scale(0.100000,-0.100000)"
fill="#000000" stroke="none">
<path d="M1775 6990 c-4 -7 -285 -10 -891 -10 l-884 0 0 -357 c0 -393 6 -451
57 -546 38 -70 103 -134 166 -162 29 -13 116 -38 195 -56 l142 -33 -2 -2329
-3 -2330 -148 -33 c-91 -21 -168 -44 -199 -61 -58 -32 -120 -98 -154 -165 -49
-96 -54 -145 -54 -540 l0 -368 733 0 c404 0 1335 3 2070 7 l1337 6 0 336 c0
185 -5 365 -10 401 -15 90 -60 178 -129 248 -68 69 -129 100 -256 131 -49 12
-107 26 -127 32 l-38 10 0 760 0 760 175 -3 175 -3 34 -35 c27 -26 1298 -2029
1508 -2375 59 -98 153 -183 248 -226 104 -47 132 -49 723 -49 l557 0 0 368 c0
294 -3 379 -15 425 -44 169 -156 281 -322 325 -43 11 -131 30 -195 42 l-117
22 -561 885 c-309 486 -563 890 -566 897 -3 8 30 33 88 65 311 177 493 341
673 611 103 155 169 280 230 435 174 444 202 1013 74 1519 -129 510 -455 917
-914 1141 -270 132 -511 199 -880 247 -122 15 -2710 24 -2720 8z m2730 -574
c499 -70 846 -232 1071 -498 220 -261 313 -581 301 -1038 -7 -292 -43 -448
-157 -687 -102 -212 -256 -411 -410 -526 -72 -54 -247 -157 -345 -203 -120
-56 -202 -80 -512 -153 -145 -34 -281 -68 -304 -74 l-41 -12 264 -185 c291
-204 358 -262 428 -365 25 -38 320 -502 655 -1030 334 -528 611 -964 615 -969
5 -4 104 -27 221 -50 129 -25 214 -46 217 -54 3 -9 -61 -12 -298 -12 l-301 0
-26 27 c-14 16 -353 549 -754 1186 -401 637 -743 1178 -759 1203 -77 112 -195
205 -310 246 -64 22 -75 23 -518 26 l-452 3 2 -1268 3 -1267 274 -68 c151 -37
276 -70 279 -73 3 -3 -286 -5 -642 -5 -611 0 -647 1 -644 17 3 14 49 29 236
73 l232 55 0 2785 0 2785 -233 55 c-216 51 -232 57 -235 78 l-4 23 1014 -4
c883 -3 1028 -6 1133 -21z m-2725 -11 c0 -8 -2 -15 -4 -15 -7 0 -324 -69 -398
-86 l-68 -16 0 -2792 0 -2793 226 -51 c125 -28 231 -55 236 -60 6 -6 7 -15 4
-21 -9 -14 -1286 -16 -1286 -1 0 12 18 16 318 81 l242 53 0 2787 c0 1533 -4
2790 -8 2793 -4 2 -127 32 -272 66 -146 33 -269 62 -275 64 -5 3 281 5 638 5
569 1 647 -1 647 -14z m408 -540 c59 -14 117 -27 130 -30 l22 -5 0 -2329 0
-2329 -139 -33 -139 -34 -134 30 -133 30 0 2330 0 2330 140 31 c77 18 141 32
143 33 1 0 51 -10 110 -24z"/>
<path d="M3080 4810 l0 -1491 613 4 c575 4 619 5 726 26 319 60 581 199 798
422 218 225 343 495 389 843 20 148 14 456 -10 586 -52 283 -155 500 -324 680
-203 218 -453 338 -822 397 -88 13 -210 17 -737 20 l-633 4 0 -1491z m1340
906 c361 -69 561 -210 655 -461 86 -229 80 -581 -15 -816 -82 -203 -284 -391
-515 -480 -159 -62 -233 -71 -622 -76 l-353 -5 0 932 0 932 383 -5 c294 -4
402 -9 467 -21z"/>
</g>
</svg>
